<?xml version="1.0" encoding="UTF-8" standalone="no" ?>
<!DOCTYPE svg PUBLIC "-//W3C//DTD SVG 1.1//EN" "http://www.w3.org/Graphics/SVG/1.1/DTD/svg11.dtd">
<svg xmlns="http://www.w3.org/2000/svg" xmlns:xlink="http://www.w3.org/1999/xlink" version="1.1" width="200" height="50" viewBox="0 0 200 50" xml:space="preserve">
<desc>Created with Fabric.js 5.2.4</desc>
<defs>
</defs>
<g transform="matrix(1 0 0 1 100 25)" id="cc9d8849-3fe2-4292-b300-f95ceb2056cc"  >
<rect style="stroke: none; stroke-width: 1; stroke-dasharray: none; stroke-linecap: butt; stroke-dashoffset: 0; stroke-linejoin: miter; stroke-miterlimit: 4; fill: rgb(255,255,255); fill-rule: nonzero; opacity: 1; visibility: hidden;" vector-effect="non-scaling-stroke"  x="-100" y="-25" rx="0" ry="0" width="200" height="50" />
</g>
<g transform="matrix(Infinity NaN NaN Infinity 0 0)" id="b8952659-7752-4c01-818e-e01881ecd2e3"  >
</g>
<g transform="matrix(0.45 0 0 0.45 100 25)"  >
<g style=""   >
		<g transform="matrix(1 0 0 1 140.13 7.56)"  >
<path style="stroke: none; stroke-width: 1; stroke-dasharray: none; stroke-linecap: butt; stroke-dashoffset: 0; stroke-linejoin: miter; stroke-miterlimit: 4; fill: rgb(231,84,37); fill-rule: nonzero; opacity: 1;" vector-effect="non-scaling-stroke"  transform=" translate(-330.13, -27.56)" d="M 330.206 25.8208 C 328.679 25.8208 328.345 27.0442 328.345 27.5229 C 328.345 28.9287 329.568 29.301 330.206 29.301 C 331.171 29.301 331.909 28.5868 331.909 27.6293 C 331.909 26.4591 331.027 25.8208 330.206 25.8208 Z" stroke-linecap="round" />
</g>
		<g transform="matrix(1 0 0 1 149.63 3.09)"  >
<path style="stroke: none; stroke-width: 1; stroke-dasharray: none; stroke-linecap: butt; stroke-dashoffset: 0; stroke-linejoin: miter; stroke-miterlimit: 4; fill: rgb(231,84,37); fill-rule: nonzero; opacity: 1;" vector-effect="non-scaling-stroke"  transform=" translate(-339.63, -23.09)" d="M 344.372 26.4438 C 344.235 26.3146 344.053 26.3146 343.924 26.4362 C 343.004 27.3101 342.32 27.576 341.021 27.576 C 339.767 27.576 338.855 27.1505 338.156 26.2387 C 337.479 25.304 336.788 23.6855 336.788 22.1657 C 336.788 19.4833 338.33 18.0776 339.866 18.0776 C 340.504 18.0776 341.006 18.1611 341.56 19.2022 C 342.009 20.0077 342.533 20.3876 343.217 20.3876 C 343.916 20.3876 344.365 19.9545 344.395 19.263 C 344.395 18.6247 343.475 16.877 340.504 16.877 C 336.727 16.877 334.47 20.2356 334.47 23.4879 C 334.47 24.6049 334.622 25.8435 335.739 27.3253 C 337.137 29.0806 338.817 29.3086 340.124 29.3086 C 342.032 29.3086 343.817 28.2675 344.669 27.3025 C 344.843 27.0897 344.843 26.9073 344.661 26.725 L 344.372 26.4438 Z" stroke-linecap="round" />
</g>
		<g transform="matrix(1 0 0 1 161.72 3.09)"  >
<path style="stroke: none; stroke-width: 1; stroke-dasharray: none; stroke-linecap: butt; stroke-dashoffset: 0; stroke-linejoin: miter; stroke-miterlimit: 4; fill: rgb(231,84,37); fill-rule: nonzero; opacity: 1;" vector-effect="non-scaling-stroke"  transform=" translate(-351.72, -23.09)" d="M 351.888 16.877 C 350.55 16.877 349.274 17.3329 348.111 18.2295 C 346.325 19.6201 345.687 21.4894 345.687 22.7736 C 345.687 24.6961 345.899 25.7599 347.229 27.3481 C 348.749 29.1566 350.9 29.301 351.523 29.301 C 354.464 29.301 357.755 26.649 357.755 23.1004 C 357.755 21.307 357.147 19.8481 355.84 18.5107 C 355.027 17.6976 353.484 16.877 351.888 16.877 Z M 351.857 28.1535 C 350.71 28.1535 349.935 27.7508 349.274 26.801 C 348.415 25.57 348.263 24.5745 348.263 23.0548 C 348.263 21.0259 348.635 19.9241 349.676 18.8602 C 350.345 18.1308 351.06 18.032 351.667 18.032 C 353.043 18.032 355.125 19.9469 355.125 22.8344 C 355.125 25.8663 353.719 28.1535 351.857 28.1535 Z" stroke-linecap="round" />
</g>
		<g transform="matrix(1 0 0 1 179.62 2.97)"  >
<path style="stroke: none; stroke-width: 1; stroke-dasharray: none; stroke-linecap: butt; stroke-dashoffset: 0; stroke-linejoin: miter; stroke-miterlimit: 4; fill: rgb(231,84,37); fill-rule: nonzero; opacity: 1;" vector-effect="non-scaling-stroke"  transform=" translate(-369.62, -22.97)" d="M 379.521 27.7432 L 378.776 27.7432 C 378.48 27.7432 378.366 27.6292 378.366 27.3557 L 378.366 21.2387 C 378.366 19.1566 377.72 18.4879 377.097 17.842 L 377.006 17.7432 C 376.231 16.9681 375.22 16.877 374.422 16.877 C 372.757 16.877 371.192 17.9028 370.333 18.9514 C 369.695 17.6292 368.54 16.877 367.149 16.877 C 365.72 16.877 364.132 17.652 363.174 18.7842 L 363.083 17.5304 C 363.083 17.2113 362.916 16.9833 362.673 16.9833 C 362.528 16.9833 362.308 17.0441 362.08 17.1657 L 359.663 18.3967 C 359.58 18.4423 359.412 18.5943 359.412 18.7614 L 359.412 18.9818 C 359.412 19.1642 359.549 19.263 359.694 19.3466 L 360.271 19.6505 C 360.841 19.9545 360.955 20.3572 360.955 20.9043 L 360.955 25.7903 C 360.955 26.2614 360.955 26.7478 360.925 27.2113 C 360.894 27.7432 360.765 27.7432 360.674 27.7432 L 359.739 27.7432 C 359.466 27.7432 359.245 27.7736 359.245 28.1535 L 359.245 28.6475 C 359.245 28.921 359.367 29.0578 359.633 29.0578 C 359.694 29.0578 359.815 29.0502 359.982 29.0426 C 360.385 29.0198 361.145 28.9742 362.186 28.9742 C 363.258 28.9742 363.927 29.0122 364.329 29.0426 C 364.497 29.0502 364.611 29.0578 364.687 29.0578 C 365.074 29.0578 365.074 28.7235 365.074 28.5943 L 365.074 28.1535 C 365.074 27.8572 364.953 27.7432 364.633 27.7432 L 363.645 27.7432 C 363.531 27.7432 363.265 27.7432 363.265 27.1961 L 363.265 21.763 C 363.265 20.9955 363.319 20.5168 363.623 20.0076 C 364.314 18.8906 365.371 18.4955 366.123 18.4955 C 366.701 18.4955 367.445 18.6475 367.764 18.9438 C 368.19 19.339 368.532 19.8253 368.532 21.7858 L 368.532 27.4393 C 368.532 27.6444 368.517 27.7432 368.091 27.7432 L 367.293 27.7432 C 366.929 27.7432 366.852 27.9028 366.852 28.1839 L 366.852 28.6247 C 366.852 29.0046 367.073 29.0654 367.21 29.0654 C 367.255 29.0654 367.346 29.0578 367.483 29.0502 C 367.871 29.0274 368.684 28.9818 369.786 28.9818 C 370.918 28.9818 371.595 29.0274 371.96 29.0502 C 372.089 29.0578 372.18 29.0654 372.233 29.0654 C 372.469 29.0654 372.59 28.9058 372.59 28.6019 L 372.59 28.1611 C 372.59 27.804 372.37 27.7508 372.127 27.7508 L 371.192 27.7508 C 371.002 27.7508 370.804 27.6976 370.804 27.2797 L 370.804 22.3101 C 370.804 21.2083 370.804 20.5472 371.169 19.8329 C 371.564 19.1186 372.613 18.4879 373.411 18.4879 C 374.217 18.4879 374.885 18.6779 375.341 19.0274 C 375.851 19.4225 376.071 20.0608 376.071 21.0943 L 376.071 25.1596 C 376.071 25.7523 376.071 26.7478 376.018 27.3709 C 376.003 27.6292 375.889 27.7432 375.63 27.7432 L 374.939 27.7432 C 374.673 27.7432 374.422 27.7736 374.422 28.1535 L 374.422 28.6171 C 374.422 28.9818 374.627 29.0578 374.809 29.0578 C 374.863 29.0578 374.977 29.0502 375.144 29.0426 C 375.569 29.0198 376.367 28.9742 377.363 28.9742 C 378.313 28.9742 378.982 29.0198 379.339 29.0426 C 379.483 29.0502 379.582 29.0578 379.643 29.0578 C 379.78 29.0578 380 28.997 380 28.6171 L 380 28.1535 C 379.985 27.7964 379.764 27.7432 379.521 27.7432 Z" stroke-linecap="round" />
</g>
		<g transform="matrix(1 0 0 1 -170.9 0.22)"  >
<path style="stroke: none; stroke-width: 1; stroke-dasharray: none; stroke-linecap: butt; stroke-dashoffset: 0; stroke-linejoin: miter; stroke-miterlimit: 4; fill: rgb(235,31,60); fill-rule: nonzero; opacity: 1;" vector-effect="non-scaling-stroke"  transform=" translate(-19.1, -20.22)" d="M 38.2037 1.11719 L 0 1.11719 L 0 39.3163 L 38.2037 39.3163 L 38.2037 1.11719 Z" stroke-linecap="round" />
</g>
		<g transform="matrix(1 0 0 1 -170.89 0.23)"  >
<path style="stroke: none; stroke-width: 1; stroke-dasharray: none; stroke-linecap: butt; stroke-dashoffset: 0; stroke-linejoin: miter; stroke-miterlimit: 4; fill: rgb(255,255,255); fill-rule: nonzero; opacity: 1;" vector-effect="non-scaling-stroke"  transform=" translate(-19.11, -20.23)" d="M 9.31674 19.3768 L 13.1774 19.3768 C 14.2869 19.3768 15.1989 18.5713 15.1989 17.4619 L 15.1989 16.2917 C 15.1989 16.2689 15.1989 16.2461 15.1989 16.2233 C 15.4117 16.2233 15.6169 16.2233 15.8297 16.2233 L 15.8297 23.4041 C 15.6169 23.4041 15.4117 23.4041 15.1989 23.4041 C 15.1989 23.2825 15.1989 23.161 15.1989 23.047 L 15.1989 22.1579 C 15.1989 21.0485 14.2945 20.281 13.1774 20.281 L 12.1362 20.281 L 10.7759 20.281 L 9.02036 20.281 L 9.02036 24.392 L 9.02796 24.392 L 9.02796 27.5682 C 9.03556 28.0166 9.09636 28.085 9.14955 28.2217 C 9.30915 28.5409 10.3427 28.7081 10.6771 28.7233 C 12.1742 28.7992 13.717 28.8752 15.1913 28.5181 C 15.6549 28.4041 16.1109 28.2445 16.5517 28.0318 C 17.9196 27.3631 18.9152 26.5272 19.0824 24.7491 L 19.4167 24.7491 L 19.4167 29.4907 L 3.60938 29.4907 L 3.60938 29.1792 C 4.11855 29.1792 5.70689 29.24 6.04888 28.5637 C 6.11727 28.4421 6.14767 28.1078 6.14767 27.5682 L 6.14767 12.8342 C 6.14767 12.2795 6.10968 11.9376 6.04128 11.8008 C 6.00328 11.7248 5.88928 11.6488 5.68409 11.5728 C 5.12171 11.3524 4.22495 11.2309 3.60938 11.2309 L 3.60938 10.9497 L 34.6161 10.9497 L 34.6161 16.0485 L 34.6161 16.1397 L 34.2361 16.1397 C 34.2285 16.1093 34.2285 16.0789 34.2209 16.0561 C 33.993 14.5059 33.8486 13.4421 32.7542 12.6062 C 31.8422 11.9072 30.1019 11.6716 28.7492 11.6716 C 28.3844 11.6716 28.1868 11.6944 28.1488 11.7324 C 28.0804 11.7856 28.0196 11.8236 28.0196 12.2643 L 28.0196 27.5834 C 28.0196 28.1382 28.0576 28.4953 28.126 28.6473 C 28.1564 28.7233 28.2856 28.8069 28.506 28.8904 C 29.1216 29.1336 30.2995 29.1944 30.9683 29.1944 L 30.9683 29.5059 L 22.1526 29.5059 L 22.1526 29.1944 C 22.8214 29.1944 23.969 29.1336 24.5845 28.8904 C 24.8049 28.8069 24.9417 28.7005 25.0101 28.5713 C 25.0709 28.4497 25.1013 28.1154 25.1013 27.5758 L 25.1013 12.2795 C 25.1013 11.778 25.0633 11.7324 24.9569 11.6944 C 24.9037 11.6716 24.7137 11.664 24.3869 11.664 C 23.1938 11.664 21.5599 11.9072 20.7087 12.5758 C 19.7283 13.3509 19.4015 14.8403 19.2268 16.0485 L 18.8468 16.0485 C 18.7404 15.3114 18.6796 14.6959 18.5884 14.1716 C 18.2768 12.3099 17.1064 12.0895 15.3205 11.8236 C 14.1958 11.6564 12.9114 11.6564 11.6574 11.664 C 10.8595 11.6716 10.0691 11.7248 9.46114 11.9376 C 9.29395 11.9983 9.18755 12.1123 9.11915 12.2415 C 9.05836 12.3631 9.02796 12.5075 9.02796 13.0622 L 9.02796 15.2354 L 9.02036 15.2354 L 9.02036 19.3844" stroke-linecap="round" />
</g>
		<g transform="matrix(1 0 0 1 -130.41 -0.11)"  >
<path style="stroke: none; stroke-width: 1; stroke-dasharray: none; stroke-linecap: butt; stroke-dashoffset: 0; stroke-linejoin: miter; stroke-miterlimit: 4; fill: rgb(238,64,138); fill-rule: nonzero; opacity: 1;" vector-effect="non-scaling-stroke"  transform=" translate(-59.59, -19.89)" d="M 66.0177 18.3663 C 69.848 16.3526 72.3635 14.9545 72.3635 9.6353 C 72.3635 6.19305 71.0487 3.88302 68.2369 2.34807 C 66.5345 1.37542 63.4567 0.904297 58.8208 0.904297 C 57.8785 0.904297 56.5713 0.942291 55.3174 0.987884 C 54.0862 1.02588 52.9311 1.06387 52.1027 1.06387 C 49.5188 1.06387 47.6189 0.987886 46.3573 0.942293 C 45.7722 0.919497 45.3466 0.904297 45.073 0.904297 C 44.7006 0.904297 44.541 1.05627 44.541 1.38302 L 44.541 2.70521 C 44.541 3.03956 44.7006 3.18393 45.073 3.18393 L 46.7145 3.18393 C 49.1768 3.18393 49.8912 3.31311 50.0432 6.25384 C 50.0964 7.23408 50.2028 13.7158 50.2028 15.6003 L 50.2028 21.8389 C 50.2028 26.1171 50.0964 33.1231 49.9368 34.3541 C 49.7316 35.9727 49.5112 36.5882 47.9305 36.5882 L 45.3922 36.5882 C 44.9742 36.5882 44.807 36.725 44.807 37.0669 L 44.807 38.4423 C 44.807 38.7994 45.1034 38.8678 45.6582 38.8678 C 46.0458 38.8678 46.7297 38.845 47.5961 38.8146 C 48.9412 38.769 50.7956 38.7082 52.4295 38.7082 C 53.4023 38.7082 54.3294 38.7386 55.401 38.7766 C 56.7613 38.8222 58.3117 38.8678 60.3636 38.8678 C 65.3718 38.8678 68.3129 38.3131 70.5168 36.9453 C 73.0627 35.342 74.6358 31.5274 74.6358 28.921 C 74.6358 23.8146 71.7403 20.2584 66.0177 18.3663 Z M 56.9969 2.81159 C 57.1717 2.81159 57.3541 2.81919 57.5517 2.81919 C 60.622 2.81919 63.0387 3.41949 64.7334 4.59731 C 66.8385 6.13226 67.2793 8.4119 67.2793 10.0608 C 67.2793 11.9073 66.7777 14.4985 64.361 16.3146 C 63.1299 17.1885 60.7816 17.6672 57.7645 17.6672 C 56.9133 17.6672 56.0318 17.6672 55.0742 17.576 L 55.0742 13.7614 C 55.0742 9.23256 55.1274 4.72649 55.1806 3.71585 C 55.1806 3.30551 55.4466 2.97117 55.8342 2.87238 C 56.1382 2.7888 56.5181 2.7964 56.9969 2.81159 Z M 60.5156 36.9605 C 56.4497 36.9605 55.0742 35.2128 55.0742 30.038 L 55.0742 19.5745 L 56.6549 19.5745 C 59.1628 19.5745 61.5871 19.6429 63.6999 20.4636 C 67.0209 21.7554 68.9208 24.7493 68.9208 28.6627 C 68.9208 31.763 67.8265 36.9605 60.5156 36.9605 Z" stroke-linecap="round" />
</g>
		<g transform="matrix(1 0 0 1 -101.87 -5.66)"  >
<path style="stroke: none; stroke-width: 1; stroke-dasharray: none; stroke-linecap: butt; stroke-dashoffset: 0; stroke-linejoin: miter; stroke-miterlimit: 4; fill: rgb(238,64,138); fill-rule: nonzero; opacity: 1;" vector-effect="non-scaling-stroke"  transform=" translate(-88.13, -14.34)" d="M 99.8296 25.8283 C 98.7352 25.8283 97.9677 25.7295 97.2685 25.228 C 96.5997 24.7341 94.2742 21.4362 94.0918 21.0638 C 93.8258 20.6307 91.2267 16.8845 90.7708 16.3906 C 90.558 16.0942 90.0716 15.4331 89.2508 15.0532 C 94.1298 13.9438 95.8626 11.9985 95.8626 7.70518 C 95.8626 6.26901 95.1026 4.61247 93.9322 3.47266 C 92.4199 2.04409 89.9044 1.21582 87.0393 1.21582 C 86.7961 1.21582 86.2033 1.23102 85.4434 1.24621 C 84.0982 1.27661 82.2515 1.3222 80.952 1.3222 C 78.6492 1.3222 77.4257 1.26141 76.8405 1.23102 C 76.6429 1.22342 76.5137 1.21582 76.4301 1.21582 C 76.1413 1.21582 76.1033 1.39819 76.1033 1.58056 L 76.1033 2.49241 C 76.1033 2.73557 76.2097 2.85716 76.4301 2.85716 L 77.8893 2.85716 C 78.7252 2.85716 79.128 3.40427 79.166 4.57448 C 79.204 5.63071 79.204 7.95594 79.204 10.6611 L 79.204 14.1945 C 79.204 17.5836 79.204 21.079 79.128 24.6885 C 79.128 25.4711 78.7252 25.8207 77.8133 25.8207 L 76.3161 25.8207 C 76.0273 25.8207 76.0273 26.0486 76.0273 26.2158 L 76.0273 27.0517 C 76.0273 27.2341 76.0274 27.4544 76.4301 27.4544 C 76.5365 27.4544 76.6733 27.4468 76.8709 27.4392 C 77.4485 27.4088 78.5353 27.348 80.99 27.348 C 83.5739 27.348 84.7518 27.4088 85.3218 27.4392 C 85.527 27.4468 85.6638 27.4544 85.7626 27.4544 C 86.1577 27.4544 86.2717 27.3556 86.2717 27.0137 L 86.2717 26.231 C 86.2717 26.0334 86.2261 25.8359 85.869 25.8359 L 83.5738 25.8359 C 83.0723 25.8359 82.8367 25.152 82.7683 24.5137 C 82.7303 23.959 82.6923 19.8328 82.6923 17.7432 L 82.6923 15.7903 C 83.1483 15.6991 83.4826 15.6991 83.7866 15.6991 C 85.8994 15.6991 86.7429 16.7021 87.6397 17.7736 C 88.0577 18.2599 89.8132 20.8815 89.9652 21.1474 C 90.0336 21.2538 90.368 21.8389 90.7556 22.5152 C 91.4091 23.655 92.2299 25.0684 92.4123 25.3496 C 92.4731 25.4331 92.5491 25.5471 92.6327 25.6763 C 93.0279 26.2614 93.6206 27.1353 93.955 27.4392 L 93.9854 27.4696 L 94.031 27.4696 C 94.5934 27.4316 95.9386 27.3632 96.9797 27.3632 C 98.0969 27.3632 98.9024 27.4164 99.3736 27.4468 C 99.5864 27.462 99.7308 27.4696 99.822 27.4696 C 100.194 27.4696 100.225 27.2417 100.225 27.0289 L 100.225 26.231 C 100.232 25.9651 100.096 25.8283 99.8296 25.8283 Z M 92.0247 8.32828 C 92.0247 9.99242 90.6264 14.3085 84.2198 14.3085 C 83.5663 14.3085 83.1863 14.2781 82.6847 14.1793 L 82.6847 3.95898 C 82.6847 3.44986 82.8291 3.06232 83.0723 2.87995 C 83.3383 2.70518 83.7562 2.6064 84.2502 2.6064 C 87.0621 2.6064 88.7416 3.06992 90.2312 4.25533 C 91.3255 5.15959 92.0247 6.75533 92.0247 8.32828 Z" stroke-linecap="round" />
</g>
		<g transform="matrix(1 0 0 1 -75.45 -6.21)"  >
<path style="stroke: none; stroke-width: 1; stroke-dasharray: none; stroke-linecap: butt; stroke-dashoffset: 0; stroke-linejoin: miter; stroke-miterlimit: 4; fill: rgb(238,64,138); fill-rule: nonzero; opacity: 1;" vector-effect="non-scaling-stroke"  transform=" translate(-114.55, -13.79)" d="M 127.819 25.8281 L 126.618 25.8281 C 125.904 25.8281 124.908 25.5546 124.239 24.2476 C 123.723 23.1761 121.329 16.2992 120.523 13.5865 C 120.166 12.3783 119.224 9.58951 118.312 6.89954 C 117.445 4.33115 116.624 1.89954 116.29 0.797719 C 116.191 0.425379 116.1 0.0986328 115.789 0.0986328 C 115.591 0.0986328 115.462 0.227811 115.317 0.379787 L 115.234 0.470972 C 114.869 0.942096 113.303 2.03632 112.262 2.25669 C 111.882 2.36307 111.852 2.61383 111.852 2.68982 C 111.852 2.86459 111.989 3.03936 112.11 3.19894 L 112.125 3.22173 C 112.331 3.54088 112.209 3.93602 112.103 4.27036 L 112.072 4.36155 C 111.875 4.95426 110.712 8.06976 109.777 10.5698 C 109.162 12.2111 108.637 13.6169 108.538 13.9132 C 107.459 16.9603 104.807 23.6701 104.571 24.2172 C 104.047 25.4254 103.538 25.8281 102.557 25.8281 L 101.281 25.8281 C 101.045 25.8281 100.878 25.9725 100.878 26.1929 L 100.878 27.0667 C 100.878 27.2415 100.916 27.4694 101.243 27.4694 C 101.402 27.4694 101.585 27.4618 101.843 27.4467 C 102.413 27.4163 103.371 27.3631 105.217 27.3631 C 106.661 27.3631 107.809 27.4163 108.561 27.4467 C 108.926 27.4618 109.2 27.477 109.374 27.477 C 109.64 27.477 109.777 27.3251 109.777 27.0363 L 109.777 26.2005 C 109.777 25.8357 109.42 25.8357 109.306 25.8357 L 107.596 25.8357 C 107.17 25.8357 106.464 25.7445 106.464 25.1442 C 106.464 25.0226 106.502 24.8023 106.532 24.6047 C 106.547 24.5135 106.562 24.4299 106.57 24.3615 C 106.745 23.6169 108.668 18.3053 109.086 17.2263 L 117.901 17.2263 C 118.426 18.7233 119.877 23.2673 120.166 24.5743 C 120.288 25.053 120.272 25.3646 120.128 25.547 C 119.984 25.7369 119.68 25.8205 119.186 25.8205 L 118.274 25.8205 C 118.122 25.8205 117.84 25.8205 117.84 26.1853 L 117.84 27.0211 C 117.84 27.2947 117.992 27.4619 118.236 27.4619 C 118.524 27.4619 118.874 27.4467 119.315 27.4315 C 120.143 27.4011 121.397 27.3479 123.373 27.3479 C 125.379 27.3479 126.36 27.4011 127.013 27.4315 C 127.317 27.4467 127.538 27.4619 127.75 27.4619 C 127.864 27.4619 128.222 27.4619 128.222 27.0971 L 128.222 26.1853 C 128.222 25.9649 128.07 25.8281 127.819 25.8281 Z M 117.392 15.6913 L 109.633 15.6913 C 110.104 14.2248 113.326 5.54696 113.486 5.12143 C 113.63 4.73389 113.752 4.6503 113.767 4.6427 C 113.805 4.6655 113.866 4.82508 113.911 4.93146 C 113.934 4.98465 113.957 5.03784 113.972 5.08343 C 114.117 5.53176 116.898 14.1108 117.392 15.6913 Z" stroke-linecap="round" />
</g>
		<g transform="matrix(1 0 0 1 -47.18 -5.43)"  >
<path style="stroke: none; stroke-width: 1; stroke-dasharray: none; stroke-linecap: butt; stroke-dashoffset: 0; stroke-linejoin: miter; stroke-miterlimit: 4; fill: rgb(238,64,138); fill-rule: nonzero; opacity: 1;" vector-effect="non-scaling-stroke"  transform=" translate(-142.82, -14.57)" d="M 157.215 1.22363 C 157.048 1.22363 156.835 1.23123 156.546 1.24643 C 155.915 1.27682 154.958 1.33002 153.316 1.33002 C 151.568 1.33002 150.428 1.27682 149.676 1.24643 C 149.326 1.23123 149.076 1.22363 148.893 1.22363 C 148.673 1.22363 148.544 1.34521 148.544 1.55038 L 148.544 2.50023 C 148.544 2.73579 148.665 2.86497 148.893 2.86497 L 150.178 2.86497 C 151.242 2.86497 151.971 3.3361 152.283 4.22515 C 152.503 4.79506 152.708 8.22212 152.754 9.82546 C 152.83 11.52 152.876 13.2601 152.876 16.7024 L 152.876 20.9501 C 152.116 20.0458 148.589 16.0793 146.461 13.7008 C 145.519 12.6446 144.835 11.8771 144.706 11.7252 L 136.263 1.76315 C 135.905 1.406 135.548 1.25403 135.016 1.25403 C 134.834 1.25403 134.606 1.26163 134.317 1.27682 C 133.838 1.29962 133.177 1.33002 132.326 1.33002 C 131.216 1.33002 130.289 1.30722 129.468 1.25403 C 129.088 1.25403 128.823 1.23883 128.625 1.23123 C 128.511 1.22363 128.42 1.22363 128.344 1.22363 C 128.101 1.22363 127.994 1.32242 127.994 1.55038 L 127.994 2.50023 C 127.994 2.72819 128.131 2.86497 128.344 2.86497 L 129.993 2.90296 C 131.262 2.93336 132.539 3.96679 132.539 6.20084 L 132.539 12.4242 C 132.539 18.982 132.455 23.1081 132.379 23.7996 C 132.174 25.6385 131.71 25.9349 130.677 25.9349 L 129.309 25.9349 C 129.088 25.9349 128.959 26.0565 128.959 26.2616 L 128.959 27.2115 C 128.959 27.3179 128.959 27.5762 129.271 27.5762 C 129.438 27.5762 130 27.5534 130.662 27.5382 C 131.612 27.5078 132.79 27.4698 133.291 27.4698 C 133.968 27.4698 135.168 27.5154 136.05 27.5458 C 136.605 27.5686 137.038 27.5838 137.19 27.5838 C 137.509 27.5838 137.623 27.485 137.623 27.1811 L 137.623 26.3756 C 137.623 26.1173 137.547 25.9425 137.19 25.9425 L 135.981 25.9425 C 134.993 25.9425 134.765 25.3422 134.606 23.9136 C 134.53 23.2221 134.203 17.2951 134.203 13.8224 L 134.203 5.7981 L 134.287 5.7981 C 134.841 6.4364 141.894 14.5139 142.342 14.8862 C 142.494 15.023 143.771 16.4744 145.382 18.3133 C 146.294 19.3467 147.313 20.5093 148.323 21.6492 L 153.225 27.2875 C 153.354 27.4394 153.742 27.9106 154.274 27.9106 C 154.532 27.9106 154.585 27.5306 154.585 26.9227 L 154.585 13.2297 C 154.585 10.8437 154.585 7.22667 154.745 4.77986 C 154.829 3.38928 155.216 2.87257 156.204 2.87257 L 157.291 2.87257 C 157.496 2.87257 157.641 2.72819 157.641 2.50783 L 157.641 1.58837 C 157.641 1.33761 157.504 1.22363 157.215 1.22363 Z" stroke-linecap="round" />
</g>
		<g transform="matrix(1 0 0 1 -17.61 -5.82)"  >
<path style="stroke: none; stroke-width: 1; stroke-dasharray: none; stroke-linecap: butt; stroke-dashoffset: 0; stroke-linejoin: miter; stroke-miterlimit: 4; fill: rgb(238,64,138); fill-rule: nonzero; opacity: 1;" vector-effect="non-scaling-stroke"  transform=" translate(-172.39, -14.18)" d="M 181.808 4.49111 C 178.624 1.77834 174.801 1.22363 170.036 1.22363 C 169.634 1.22363 168.592 1.24643 167.498 1.27682 C 166.343 1.30722 165.157 1.33002 164.671 1.33002 C 162.323 1.33002 160.833 1.26923 160.035 1.23883 C 159.724 1.22363 159.511 1.22363 159.382 1.22363 C 159.07 1.22363 159.017 1.406 159.017 1.51239 L 159.017 2.48503 C 159.017 2.84977 159.298 2.84977 159.412 2.84977 L 161.388 2.84977 C 162.323 2.84977 162.725 2.97135 162.832 3.76163 C 162.9 4.36953 163.014 9.47591 163.014 10.4106 L 163.014 13.1081 C 163.014 16.0565 162.862 24.0428 162.763 24.7571 C 162.703 25.2738 162.361 25.5245 161.722 25.5245 L 159.313 25.5245 C 159.024 25.5245 158.918 25.6917 158.918 25.8437 L 158.918 26.7783 C 158.918 27.0215 159.04 27.1355 159.283 27.1355 C 159.427 27.1355 159.648 27.1279 159.967 27.1127 C 160.772 27.0823 162.125 27.0291 164.359 27.0291 C 165.104 27.0291 166.092 27.0519 167.133 27.0747 C 168.364 27.1051 169.755 27.1355 170.986 27.1355 C 173.707 27.1355 178.776 27.1355 182.264 23.2829 C 184.78 20.5397 185.859 17.6826 185.859 13.7388 C 185.844 9.96983 184.445 6.76315 181.808 4.49111 Z M 166.616 22.7206 C 166.578 20.5245 166.54 14.3847 166.54 13.906 L 166.54 11.3528 C 166.54 10.1142 166.548 5.95008 166.578 4.5519 C 166.616 3.80722 166.738 3.25251 167.209 2.94856 C 167.794 2.60661 169.254 2.60661 170.036 2.60661 C 173.745 2.60661 177.013 3.85281 178.996 6.02607 C 180.714 7.92576 181.922 11.1704 181.922 13.9136 C 181.922 16.9227 180.95 19.9242 179.316 21.9455 C 177.408 24.3923 174.353 25.7905 170.941 25.7905 C 169.109 25.7905 167.749 25.3878 167.217 24.6887 C 166.776 24.02 166.616 23.4729 166.616 22.7206 Z" stroke-linecap="round" />
</g>
		<g transform="matrix(1 0 0 1 17.12 -5.49)"  >
<path style="stroke: none; stroke-width: 1; stroke-dasharray: none; stroke-linecap: butt; stroke-dashoffset: 0; stroke-linejoin: miter; stroke-miterlimit: 4; fill: rgb(234,84,38); fill-rule: nonzero; opacity: 1;" vector-effect="non-scaling-stroke"  transform=" translate(-207.12, -14.51)" d="M 218.369 21.1097 L 217.777 20.7753 C 217.45 20.6081 217.283 20.8893 217.192 21.0337 C 216.667 21.8999 214.615 24.5291 214.182 24.8862 C 213.255 25.6689 211.659 26.0793 211.028 26.1552 C 210.261 26.2236 208.406 26.2616 207.791 26.2616 C 206.924 26.2616 205.86 26.1628 205.078 26.0033 C 203.755 25.7449 203.094 24.8331 203.064 23.2297 C 203.064 22.9486 203.056 22.2647 203.041 21.406 C 203.018 20.0306 202.988 18.1537 202.988 16.9151 L 202.988 14.7343 C 205.511 14.7343 206.962 14.8331 207.738 14.9166 C 208.543 15.0078 208.991 15.4182 209.235 16.2768 C 209.311 16.5504 209.561 17.485 209.637 18.0017 C 209.66 18.1461 209.698 18.3057 209.812 18.3817 C 209.881 18.4273 209.964 18.4425 210.055 18.4273 L 210.876 18.3133 C 211.081 18.2601 211.18 18.1385 211.18 17.903 C 211.142 17.5154 210.96 15.5093 210.96 14.0732 C 210.96 11.8011 210.998 10.2738 211.066 9.88624 C 211.097 9.77226 211.074 9.65828 211.013 9.5747 C 210.952 9.49871 210.853 9.45311 210.747 9.45311 L 209.82 9.41512 C 209.592 9.41512 209.455 9.5595 209.455 9.77986 C 209.417 10.4562 209.28 11.178 209.166 11.5656 C 208.847 12.675 208.573 12.941 207.555 13.1157 C 207.16 13.1841 203.717 13.3133 202.995 13.3361 L 202.995 2.74339 L 209.455 2.88777 C 210.314 2.91816 211.317 3.2753 212.206 3.86801 C 213.065 4.40752 215.77 7.87257 215.862 8.03215 C 215.9 8.10053 215.983 8.19172 216.097 8.22212 C 216.173 8.24491 216.249 8.22971 216.302 8.19172 L 216.857 7.89537 C 217.108 7.77379 217.047 7.53822 217.024 7.43184 L 215.14 1.48199 C 215.079 1.30722 214.95 1.22363 214.744 1.22363 C 214.676 1.22363 214.539 1.23123 214.364 1.24643 C 214.06 1.26922 213.635 1.29962 213.262 1.29962 C 211.431 1.29962 209.607 1.30722 207.776 1.31482 C 205.944 1.32242 204.12 1.33762 202.289 1.33762 L 200.662 1.33762 C 199.119 1.33762 198.033 1.29202 197.242 1.26163 C 196.779 1.24643 196.422 1.23123 196.118 1.23123 C 195.776 1.23123 195.753 1.4592 195.753 1.52759 L 195.753 2.52302 C 195.753 2.89536 196.034 2.89537 196.156 2.89537 L 197.486 2.89537 C 198.808 2.89537 199.119 3.13093 199.264 4.23275 C 199.302 4.59749 199.37 9.23275 199.37 12.2723 L 199.37 24.6355 C 199.37 25.9577 199.264 26.1476 197.63 26.1476 L 196.156 26.1476 C 195.988 26.1476 195.677 26.1476 195.677 26.444 L 195.677 27.4394 C 195.677 27.6066 195.753 27.8042 196.118 27.8042 C 196.33 27.8042 196.604 27.789 196.984 27.7738 C 197.189 27.7586 197.432 27.751 197.706 27.7358 C 198.017 27.7358 198.382 27.7282 198.808 27.7206 C 199.393 27.713 200.062 27.6978 200.845 27.6978 C 204.401 27.6978 207.183 27.713 209.212 27.7206 C 210.504 27.7282 211.553 27.7282 212.396 27.7282 L 212.404 27.7282 C 213.946 27.751 214.79 27.7814 215.254 27.7966 C 215.451 27.8042 215.565 27.8042 215.626 27.8042 C 216.082 27.8042 216.409 27.5838 216.538 27.1811 L 218.491 21.7555 C 218.59 21.4896 218.643 21.2768 218.369 21.1097 Z" stroke-linecap="round" />
</g>
		<g transform="matrix(1 0 0 1 66.93 -5.16)"  >
<path style="stroke: none; stroke-width: 1; stroke-dasharray: none; stroke-linecap: butt; stroke-dashoffset: 0; stroke-linejoin: miter; stroke-miterlimit: 4; fill: rgb(234,84,38); fill-rule: nonzero; opacity: 1;" vector-effect="non-scaling-stroke"  transform=" translate(-256.93, -14.84)" d="M 244.323 2.69746 L 245.972 2.69746 C 246.914 2.69746 247.203 3.12299 247.203 4.51357 L 247.203 13.5181 C 247.203 18.5713 247.355 21.0713 247.765 22.7355 C 248.366 25.2582 249.711 26.8996 252.014 27.8798 C 253.131 28.3889 254.879 28.6853 256.809 28.6853 C 259.712 28.6853 261.962 27.9102 263.497 26.3905 C 265.328 24.6959 266.255 22.4239 266.483 19.0196 C 266.59 17.5303 266.658 10.9041 266.658 10.3874 C 266.658 7.67466 266.673 4.39959 266.727 4.13363 C 266.734 4.09563 266.742 4.05004 266.757 4.00445 C 266.856 3.51813 267.031 2.70506 268.133 2.70506 L 269.577 2.70506 C 269.896 2.70506 269.896 2.36311 269.896 2.21874 L 269.896 1.38287 C 269.896 1.2157 269.812 1.01053 269.432 1.01053 C 269.349 1.01053 269.204 1.01813 268.999 1.03333 C 268.421 1.06372 267.35 1.12451 265.572 1.12451 C 263.869 1.12451 262.539 1.06372 261.825 1.03333 C 261.544 1.01813 261.338 1.01053 261.24 1.01053 C 260.943 1.01053 260.882 1.1625 260.882 1.38287 L 260.882 2.28713 C 260.882 2.40871 260.882 2.69746 261.24 2.69746 L 262.79 2.69746 C 263.611 2.69746 264.158 3.28257 264.264 4.26281 C 264.371 5.24305 264.439 7.48469 264.439 10.2658 L 264.439 18.3586 C 264.439 21.4285 263.862 23.5181 262.638 24.9391 C 261.483 26.2233 259.537 26.9832 257.44 26.9832 C 256.019 26.9832 253.42 26.6336 251.938 24.3084 C 251.238 23.2066 250.866 21.6032 250.828 19.5516 C 250.684 14.582 250.653 12.4543 250.653 11.5424 L 250.653 9.05764 C 250.653 7.03637 250.691 4.47557 250.722 4.14883 C 250.782 3.42694 251.299 2.69746 252.302 2.69746 L 254.058 2.69746 C 254.385 2.69746 254.446 2.55308 254.446 2.32512 L 254.446 1.33728 C 254.446 1.09412 254.324 1.00293 254.02 1.00293 C 253.914 1.00293 253.708 1.01053 253.412 1.02573 C 252.637 1.05612 251.193 1.11691 249.202 1.11691 C 247.188 1.11691 245.729 1.05612 244.946 1.02573 C 244.665 1.01813 244.475 1.00293 244.384 1.00293 C 244.026 1.00293 243.958 1.14731 243.958 1.41326 L 243.958 2.24153 C 243.973 2.49989 243.996 2.69746 244.323 2.69746 Z" stroke-linecap="round" />
</g>
		<g transform="matrix(1 0 0 1 86.02 -5.49)"  >
<path style="stroke: none; stroke-width: 1; stroke-dasharray: none; stroke-linecap: butt; stroke-dashoffset: 0; stroke-linejoin: miter; stroke-miterlimit: 4; fill: rgb(234,84,38); fill-rule: nonzero; opacity: 1;" vector-effect="non-scaling-stroke"  transform=" translate(-276.02, -14.51)" d="M 270.884 2.69013 L 272.905 2.69013 C 274.213 2.69013 274.479 3.07007 274.539 3.86035 C 274.577 4.44545 274.676 11.216 274.676 12.0746 L 274.676 14.7038 C 274.676 16.8087 274.57 24.8178 274.501 25.3497 C 274.38 26.178 273.833 26.3451 273.042 26.3451 L 271.097 26.3451 C 270.861 26.3451 270.709 26.4743 270.709 26.6795 L 270.709 27.6901 C 270.709 27.8953 270.861 28.0245 271.097 28.0245 C 271.195 28.0245 271.363 28.0169 271.621 28.0093 C 272.335 27.9789 273.817 27.9181 276.28 27.9181 C 278.484 27.9181 279.821 27.9789 280.543 28.0093 C 280.817 28.0169 280.999 28.0321 281.113 28.0321 C 281.493 28.0321 281.539 27.7965 281.539 27.6977 L 281.539 26.7175 C 281.539 26.4819 281.394 26.3451 281.151 26.3451 L 279.722 26.3451 C 278.598 26.3451 278.195 26.1552 278.195 25.0989 C 278.195 24.8862 278.164 22.5002 278.142 20.1901 C 278.119 17.9409 278.088 15.8208 278.088 15.6385 L 278.088 12.7433 C 278.088 12.5078 278.119 10.1445 278.142 7.85731 C 278.164 5.76764 278.187 3.79956 278.187 3.61719 C 278.187 2.84211 278.788 2.67494 279.297 2.67494 L 280.931 2.67494 C 281.174 2.67494 281.318 2.53816 281.318 2.30259 L 281.318 1.36794 C 281.318 1.13998 281.181 0.995605 280.969 0.995605 C 280.832 0.995605 280.634 1.0032 280.368 1.0184 C 279.669 1.0488 278.491 1.10959 276.272 1.10959 C 273.893 1.10959 272.313 1.0488 271.469 1.0184 C 271.165 1.0108 270.96 1.0032 270.846 1.0032 C 270.633 1.0032 270.496 1.13998 270.496 1.33755 L 270.496 2.35579 C 270.496 2.56096 270.648 2.69013 270.884 2.69013 Z" stroke-linecap="round" />
</g>
		<g transform="matrix(1 0 0 1 103.11 -6)"  >
<path style="stroke: none; stroke-width: 1; stroke-dasharray: none; stroke-linecap: butt; stroke-dashoffset: 0; stroke-linejoin: miter; stroke-miterlimit: 4; fill: rgb(234,84,38); fill-rule: nonzero; opacity: 1;" vector-effect="non-scaling-stroke"  transform=" translate(-293.11, -14)" d="M 303.19 1.69453 C 303.122 1.17781 303.076 0.813071 303.061 0.69909 C 303.008 0.281157 302.955 0.00760041 302.674 0.00760041 C 302.529 0.00760041 302.415 0.0531928 302.24 0.182372 L 301.663 0.6231 C 301.184 0.965045 300.812 1.08663 300.12 1.12462 C 299.763 1.13982 299.421 1.16261 299.049 1.18541 C 297.855 1.2614 296.503 1.34499 293.949 1.34499 L 292.475 1.34499 C 290.393 1.34499 289.116 1.269 287.991 1.19301 C 287.55 1.17021 287.125 1.13982 286.669 1.11702 C 285.802 1.07903 285.521 0.980245 284.982 0.50912 L 284.586 0.174772 C 284.442 0.0455924 284.32 0 284.146 0 C 283.849 0 283.766 0.395137 283.728 0.691489 C 283.667 1.08663 282.603 5.85106 282.284 7.22644 C 282.2 7.54559 282.375 7.61398 282.481 7.65957 L 283.044 7.84954 C 283.264 7.90273 283.408 7.81915 283.477 7.59879 L 283.5 7.538 C 283.933 6.33739 284.837 3.83739 286.144 3.34347 C 287.33 2.90274 289.967 2.90274 290.962 2.90274 L 291.624 2.90274 L 291.624 12.3556 C 291.624 13.5942 291.624 24.5137 291.532 25.5547 C 291.51 25.9498 291.191 26.345 290.628 26.345 L 288.538 26.345 C 288.211 26.345 288.211 26.6337 288.211 26.8237 L 288.211 27.5304 C 288.211 27.69 288.211 28.0091 288.599 28.0091 C 288.721 28.0091 288.903 28.0015 289.177 27.9863 C 289.861 27.9559 291.137 27.8951 293.273 27.8951 C 295.553 27.8951 296.67 27.9635 297.202 27.9863 C 297.377 27.9939 297.498 28.0015 297.574 28.0015 C 297.939 28.0015 297.992 27.804 297.992 27.5912 L 297.992 26.8389 C 297.992 26.5881 297.962 26.3602 297.574 26.3602 L 295.636 26.3602 C 295.036 26.3602 294.762 25.9574 294.702 24.9772 C 294.671 24.3617 294.671 14.5289 294.671 13.4119 L 294.671 2.91034 L 295.424 2.91034 C 297.012 2.91034 299.801 2.99392 300.683 3.52584 C 301.594 4.05775 302.468 6.61854 302.757 7.46201 L 302.818 7.63678 C 302.902 7.85714 302.955 8.03951 303.198 7.96353 L 303.684 7.81915 C 303.905 7.76595 303.988 7.62918 303.95 7.40122 C 303.768 6.17021 303.396 3.25988 303.19 1.69453 Z" stroke-linecap="round" />
</g>
		<g transform="matrix(1 0 0 1 126.89 -5.62)"  >
<path style="stroke: none; stroke-width: 1; stroke-dasharray: none; stroke-linecap: butt; stroke-dashoffset: 0; stroke-linejoin: miter; stroke-miterlimit: 4; fill: rgb(234,84,38); fill-rule: nonzero; opacity: 1;" vector-effect="non-scaling-stroke"  transform=" translate(-316.89, -14.38)" d="M 329.651 1.00293 C 329.56 1.00293 329.423 1.01053 329.226 1.02573 C 328.755 1.05612 327.881 1.11691 326.307 1.11691 C 324.514 1.11691 323.207 1.05612 322.508 1.02573 C 322.226 1.01053 322.029 1.00293 321.93 1.00293 C 321.672 1.00293 321.558 1.10172 321.558 1.33728 L 321.558 2.22633 C 321.558 2.37831 321.558 2.66707 321.93 2.66707 L 322.933 2.66707 C 323.488 2.66707 323.853 2.77345 324.02 2.98621 C 324.225 3.24457 324.126 3.63211 324.05 3.98165 C 323.944 4.44518 321.094 8.77649 319.209 11.6412 C 318.48 12.7431 317.841 13.7157 317.446 14.3312 C 317.043 13.5789 316.337 12.2947 315.523 10.8282 C 313.966 8.00901 311.822 4.14123 311.754 3.76889 C 311.678 3.29776 311.693 3.047 311.822 2.90263 C 311.959 2.74305 312.248 2.67466 312.765 2.67466 L 313.988 2.67466 C 314.361 2.67466 314.361 2.34031 314.361 2.23393 L 314.361 1.30688 C 314.361 1.04092 314.148 1.01053 313.988 1.01053 C 313.897 1.01053 313.753 1.01813 313.532 1.02573 C 312.833 1.05612 311.366 1.11691 308.456 1.11691 C 306.822 1.11691 305.439 1.05612 304.701 1.02573 C 304.405 1.01053 304.2 1.00293 304.109 1.00293 C 303.85 1.00293 303.736 1.10172 303.736 1.33728 L 303.736 2.30232 C 303.736 2.39351 303.736 2.67466 304.109 2.67466 L 305.036 2.67466 C 305.575 2.67466 306.404 2.97101 306.883 3.52573 C 307.969 4.84031 314.049 15.1899 314.581 16.2157 L 314.581 18.3434 C 314.581 21.7932 314.505 24.7111 314.475 25.243 C 314.444 25.6534 314.285 26.0713 313.282 26.0713 L 311.465 26.0713 C 311.093 26.0713 311.093 26.3525 311.093 26.4437 L 311.093 27.3327 C 311.093 27.6291 311.26 27.743 311.427 27.743 C 311.534 27.743 311.693 27.7354 311.921 27.7278 C 312.598 27.6975 313.852 27.6367 316.321 27.6367 C 318.586 27.6367 319.977 27.6975 320.722 27.7278 C 321.01 27.743 321.208 27.7506 321.33 27.7506 C 321.702 27.7506 321.702 27.5227 321.702 27.3099 L 321.702 26.4589 C 321.702 26.3145 321.702 26.0865 321.33 26.0865 L 319.886 26.0865 C 318.928 26.0865 318.465 25.9649 318.358 24.8859 C 318.32 24.4832 318.206 22.0668 318.206 20.623 L 318.206 15.7978 C 323.306 8.41934 326.497 3.92846 326.969 3.48013 C 327.523 2.96342 328.109 2.69746 328.717 2.69746 L 329.644 2.69746 C 330.016 2.69746 330.046 2.4695 330.046 2.25673 L 330.046 1.36767 C 330.054 1.10171 329.94 1.00293 329.651 1.00293 Z" stroke-linecap="round" />
</g>
		<g transform="matrix(1 0 0 1 61.97 0.31)"  >
<path style="stroke: none; stroke-width: 1; stroke-dasharray: none; stroke-linecap: butt; stroke-dashoffset: 0; stroke-linejoin: miter; stroke-miterlimit: 4; fill: rgb(234,84,38); fill-rule: nonzero; opacity: 1;" vector-effect="non-scaling-stroke"  transform=" translate(-251.97, -20.31)" d="M 279.129 31.9301 C 275.588 33.9817 270.359 36.4058 265.374 36.4058 C 265.282 36.4058 265.191 36.4058 265.1 36.4058 C 256.064 36.2386 250.539 34.4149 245.66 32.7963 C 244.68 32.4696 243.753 32.1656 242.841 31.8845 C 241.526 31.4817 240.173 30.9726 238.866 30.4787 C 237.133 29.8252 235.34 29.1489 233.546 28.6854 C 234.124 28.5334 234.428 28.3738 234.435 28.3738 C 235.902 27.8115 238.699 26.5197 240.895 24.2781 C 243.327 21.8313 244.801 18.0015 244.725 14.2857 C 244.809 10.6535 243.54 7.24923 241.153 4.70363 C 239.375 2.79634 236.191 0.547101 231.152 0.630688 C 229.169 0.5547 225.103 1.63373 222.253 4.2781 C 219.57 6.7933 217.974 10.5015 217.974 14.2021 C 217.974 19.658 220.239 22.8267 221.584 24.2325 C 223.401 26.2082 225.498 27.614 227.808 28.3966 C 227.132 28.7386 225.969 29.4377 225.597 30.3723 C 225.27 31.2006 225.293 32.0061 225.665 32.5456 C 225.962 32.9635 226.44 33.1687 227.048 33.1459 C 227.368 33.1383 227.588 33.0471 227.725 32.8799 C 227.96 32.5988 227.892 32.1656 227.816 31.6945 C 227.74 31.1854 227.656 30.6535 227.938 30.2811 C 228.135 30.0228 228.5 29.8632 229.047 29.7948 C 231.867 29.4605 237.179 31.4438 239.877 32.6748 C 240.226 32.8343 240.659 33.0319 241.161 33.2599 C 244.748 34.9164 252.211 38.3586 256.034 39.1717 C 257.417 39.4681 260.441 40 263.922 40 C 267.654 40 271.909 39.3845 275.261 37.1808 C 281.105 33.3511 285.923 27.5152 285.976 27.4544 L 285.824 27.3024 C 285.779 27.3404 283.035 29.658 279.129 31.9301 Z M 238.889 22.5532 C 237.696 24.696 235.446 27.2568 231.464 27.2568 C 230.825 27.2568 228.865 27.2568 225.817 24.3085 C 223.925 22.4544 221.896 18.7462 221.896 13.9058 C 221.896 11.6565 222.306 7.45439 225.073 4.62765 C 227.193 2.46199 229.412 2.21123 230.901 2.21123 C 233.409 2.21123 235.302 3.10029 237.658 5.38753 C 239.626 7.28722 240.796 11.0486 240.796 15.4559 C 240.804 16.8009 240.401 19.8252 238.889 22.5532 Z" stroke-linecap="round" />
</g>
		<g transform="matrix(1 0 0 1 -28.44 17.39)"  >
<path style="stroke: none; stroke-width: 1; stroke-dasharray: none; stroke-linecap: butt; stroke-dashoffset: 0; stroke-linejoin: miter; stroke-miterlimit: 4; fill: rgb(31,21,29); fill-rule: nonzero; opacity: 1;" vector-effect="non-scaling-stroke"  transform=" translate(-161.56, -37.39)" d="M 73.9063 35.6533 L 245.606 35.6533 C 245.606 35.6533 252.507 38.6092 254.87 39.1336 L 68.2598 39.1336 C 68.2598 39.1336 70.0989 38.7612 73.9063 35.6533 Z" stroke-linecap="round" />
</g>
		<g transform="matrix(1 0 0 1 135.78 17.39)"  >
<path style="stroke: none; stroke-width: 1; stroke-dasharray: none; stroke-linecap: butt; stroke-dashoffset: 0; stroke-linejoin: miter; stroke-miterlimit: 4; fill: rgb(31,21,29); fill-rule: nonzero; opacity: 1;" vector-effect="non-scaling-stroke"  transform=" translate(-325.78, -37.39)" d="M 379.924 35.6533 L 277.655 35.6533 C 274.843 38.1609 271.636 39.1336 271.636 39.1336 L 379.924 39.1336 L 379.924 35.6533 Z" stroke-linecap="round" />
</g>
</g>
</g>
</svg>