<svg width="267" height="56" viewBox="0 0 267 56" fill="none" xmlns="http://www.w3.org/2000/svg">
<path fill-rule="evenodd" clip-rule="evenodd" d="M0.490601 37.2698H37.4391V0.321289H0.490601V37.2698ZM13.2288 18.5482H9.50518H9.21764V14.537V12.438C9.21764 11.8917 9.26077 11.7623 9.31828 11.6473C9.37579 11.5179 9.47643 11.4029 9.64895 11.3454C10.224 11.1441 11.0004 11.0866 11.7623 11.0866C12.9844 11.0722 14.2208 11.0866 15.3134 11.2447C17.0387 11.5035 18.16 11.7192 18.462 13.5163C18.518 13.8429 18.5679 14.2119 18.6236 14.6233C18.6537 14.8457 18.6854 15.0805 18.7207 15.3277H19.0802C19.2527 14.1632 19.569 12.7255 20.5178 11.9779C21.3373 11.3166 22.9188 11.0866 24.0689 11.0866C24.3852 11.0866 24.5721 11.0962 24.6296 11.1153C24.7303 11.1585 24.7734 11.2016 24.7734 11.6904V26.4698C24.7734 26.9874 24.7399 27.3085 24.6728 27.4331C24.6153 27.5577 24.4811 27.6583 24.2702 27.735C23.6808 27.9794 22.5594 28.0369 21.9124 28.0369V28.3388H30.4379V28.0369C29.7909 28.0369 28.6551 27.9794 28.0513 27.735C27.8405 27.6583 27.7207 27.5816 27.6919 27.5049C27.6152 27.3516 27.5769 27.0065 27.5769 26.4698V11.6616C27.5769 11.2464 27.6302 11.2043 27.6983 11.1504C27.7009 11.1483 27.7036 11.1462 27.7063 11.1441C27.7446 11.1057 27.9363 11.0866 28.2814 11.0866C29.5896 11.0866 31.2861 11.3166 32.1631 11.9923C33.2065 12.7927 33.3547 13.8204 33.5683 15.3015L33.572 15.3277C33.5816 15.3565 33.5864 15.3853 33.5864 15.414H33.9602V15.3277V10.3965H3.97009V10.6696C4.57392 10.6696 5.43653 10.799 5.98285 11.0003C6.17454 11.077 6.28956 11.1537 6.3279 11.2303C6.39499 11.3549 6.42853 11.6856 6.42853 12.2223V26.4698C6.42853 26.9874 6.39499 27.3085 6.3279 27.4331C6.01911 28.0506 4.65721 28.0413 4.08027 28.0374C4.03938 28.0371 4.00244 28.0369 3.97009 28.0369V28.3388H19.2527V23.7526H18.9364C18.7782 25.4634 17.815 26.2829 16.4923 26.9299C16.061 27.1311 15.6297 27.2749 15.1697 27.3899C13.7464 27.735 12.2655 27.6631 10.8135 27.5912C10.4972 27.5768 9.4908 27.4043 9.33266 27.1024C9.32542 27.0807 9.31778 27.0606 9.31001 27.0402C9.27145 26.9388 9.22961 26.8288 9.21764 26.4698V23.3932V19.4251H10.9141H12.2224H13.2288C14.307 19.4251 15.184 20.1727 15.184 21.2366V22.0992C15.1936 22.2143 15.1936 22.3293 15.184 22.4443H15.8022V15.5003H15.184V15.5578V16.6935C15.184 17.7718 14.307 18.5482 13.2288 18.5482Z" fill="#ED1C24"/>
<path fill-rule="evenodd" clip-rule="evenodd" d="M195.052 16.5513C197.626 18.8947 198.92 22.0145 198.92 25.8243C198.92 29.476 197.64 32.5527 195.11 34.968C192.81 37.1677 190.179 38.2747 187.303 38.2747C184.342 38.2747 181.74 37.2395 179.54 35.198C176.966 32.8259 175.672 29.6629 175.672 25.8243C175.672 22.1582 176.952 19.096 179.482 16.7238C181.783 14.5673 184.414 13.4746 187.303 13.4746C190.207 13.4746 192.824 14.5097 195.052 16.5513V16.5513ZM183.192 34.5511C183.896 36.2907 185.247 37.1245 187.303 37.1245C189.172 37.1245 190.466 36.2619 191.257 34.4936C192.091 32.6533 192.508 29.7348 192.508 25.8243C192.508 21.7844 192.163 18.9234 191.487 17.2989C190.725 15.5017 189.345 14.6248 187.303 14.6248C185.42 14.6248 184.126 15.473 183.335 17.1982C182.501 18.9953 182.085 21.8994 182.085 25.8243C182.085 29.8211 182.458 32.754 183.192 34.5511V34.5511Z" fill="#1A1A1A"/>
<path d="M222.024 18.1178C222.024 19.728 221.333 20.8494 219.982 21.4676C219.651 21.6257 219.206 21.712 218.674 21.712C217.84 21.712 217.121 21.4245 216.546 20.8494C215.957 20.2743 215.669 19.4117 215.669 18.2903C215.669 17.5571 215.942 16.8095 216.488 16.0907C216.92 15.5252 217.409 15.2137 217.955 15.1562C217.739 14.8974 217.322 14.6817 216.517 14.6817C215.583 14.6817 214.591 15.4149 213.599 16.8814C212.233 18.8223 211.557 21.3526 211.557 24.4292V34.7806C211.557 35.7007 211.643 35.9882 211.687 36.0745C211.687 36.0745 211.773 36.1607 212.017 36.2614C212.736 36.5058 214.318 36.6208 216.704 36.6208H217.035V37.7853H200.214V36.6208H200.53C201.594 36.6208 202.557 36.592 203.42 36.5202C204.211 36.4483 204.915 36.3045 205.505 36.1176C205.562 36.017 205.691 35.7151 205.691 34.7806V17.4708C205.691 16.522 205.562 16.3063 205.548 16.2776C205.246 15.8606 205.059 15.7456 204.973 15.7169C204.354 15.5443 202.859 15.4581 200.53 15.4581H200.214V14.3223L211.557 13.4453V18.1609C211.806 17.5571 212.123 16.9676 212.506 16.3926C213.786 14.4517 215.425 13.4741 217.38 13.4741C218.127 13.4741 218.947 13.7185 219.81 14.2073C220.686 14.7105 221.276 15.3431 221.578 16.1194C221.88 16.8526 222.024 17.5283 222.024 18.1178Z" fill="#1A1A1A"/>
<path d="M238.427 36.6255H238.743V37.79H221.922V36.6255H222.253C223.302 36.6255 224.28 36.5967 225.128 36.5248C225.933 36.4529 226.638 36.3092 227.213 36.1223C227.27 36.036 227.4 35.7341 227.4 34.7852V5.1114C227.4 4.29192 227.256 3.91812 227.141 3.75997C226.954 3.51557 226.782 3.3718 226.638 3.31429C226.02 3.14177 224.553 3.05551 222.31 3.05551H221.98V1.93411L233.266 0.927734V34.7996C233.266 35.7053 233.352 35.9929 233.395 36.0791C233.395 36.0791 233.481 36.1654 233.726 36.266C234.444 36.5104 236.026 36.6255 238.427 36.6255V36.6255Z" fill="#1A1A1A"/>
<path fill-rule="evenodd" clip-rule="evenodd" d="M266.218 36.0791V37.2005L255.163 38.3219V33.4769C254.961 34.0041 254.722 34.5169 254.444 35.0153C253.236 37.1862 251.54 38.2788 249.383 38.2788C246.637 38.2788 244.337 37.2149 242.554 35.1159C240.628 32.8587 239.65 29.7102 239.65 25.7709C239.65 23.0537 240.541 20.4084 242.31 17.9356C244.394 14.9739 247.083 13.4787 250.274 13.4787C252.057 13.4787 253.48 14.4707 254.501 16.4116C254.75 16.9004 254.971 17.4084 255.163 17.9356V5.1114C255.163 4.27754 255.004 3.91812 254.889 3.75997C254.717 3.52994 254.472 3.38618 254.156 3.32867C253.25 3.14177 251.18 3.05551 248.003 3.05551H247.672V1.91974L261.014 0.927734V34.2389C261.014 35.159 261.1 35.4466 261.143 35.5328C261.158 35.5328 261.23 35.6047 261.488 35.7197C262.193 35.9498 263.688 36.0791 265.902 36.0791H266.218ZM246.651 33.9801C247.198 36.0935 248.29 37.1287 249.987 37.1287C251.108 37.1287 252.143 36.2373 253.078 34.4689C254.271 32.2549 254.861 29.3076 254.861 25.7134C254.861 22.0617 254.444 19.2582 253.624 17.3892C252.819 15.5634 251.784 14.6864 250.433 14.6864C248.794 14.6864 247.687 15.434 247.054 16.9579C246.393 18.5681 246.048 21.5441 246.048 25.8284C246.048 29.7102 246.249 32.4562 246.651 33.9801V33.9801Z" fill="#1A1A1A"/>
<path d="M181.625 1.39941V2.54956H181.294C178.792 2.54956 176.981 3.81473 175.773 6.41694C175.601 6.80511 174.925 8.57347 173.746 11.8226L164.574 38.0029H162.273L154.366 11.9089L147.595 38.0029H145.237L145.151 37.7872L132.973 5.43931C132.312 3.67096 131.78 3.09588 131.435 2.93774C131.076 2.76522 129.997 2.54956 126.906 2.54956H126.576V1.39941H144.877V2.56394C143.167 2.59269 141.916 2.70771 141.197 2.89461C140.248 3.16777 140.133 3.65658 140.133 4.00163C140.133 4.31792 140.234 4.73485 140.449 5.20928L148.788 27.5078L153.547 9.32106L152.397 5.43931C151.879 3.71409 151.333 3.13901 150.959 2.96649C150.599 2.79397 149.665 2.60707 147.278 2.56394V1.39941H164.861V2.56394C162.863 2.56394 161.425 2.67895 160.634 2.89461C159.916 3.09588 159.585 3.48406 159.585 4.11664C159.585 4.47606 159.642 4.84986 159.786 5.22366L166.644 27.594L172.409 11.2763C173.013 9.50796 173.329 8.0559 173.329 6.9345C173.329 4.05913 171.331 2.62145 167.262 2.56394V1.39941H181.625Z" fill="#1A1A1A"/>
<path fill-rule="evenodd" clip-rule="evenodd" d="M129.624 28.6308V30.8017C129.624 33.0732 129.408 34.6116 128.977 35.5173C128.243 37.0412 126.806 37.8176 124.707 37.8176C121.99 37.8176 120.178 36.7825 119.301 34.7266C118.611 33.102 118.266 30.1404 118.266 25.6835V24.5046C118.266 24.1212 118.285 23.7235 118.323 23.3114C118.323 21.4855 117.907 20.2347 117.073 19.6165C116.21 18.9695 114.931 18.6533 113.277 18.6533H107.052V33.3033C107.052 34.6978 107.153 35.1579 107.225 35.2873C107.32 35.5077 107.536 35.685 107.871 35.8192C108.145 35.9199 108.792 36.0636 110.387 36.1068C111.681 36.1355 113.076 36.1643 114.528 36.1643H114.859V37.3144H91.5106V36.1068H91.8413C96.6288 36.1068 98.239 35.8767 98.7566 35.6754C99.0441 35.5604 99.2454 35.4023 99.3604 35.1866C99.4179 35.086 99.5473 34.6834 99.5473 33.3033V4.56394C99.5473 3.22689 99.4179 2.86747 99.3604 2.76683C99.346 2.75245 99.2741 2.63744 98.8141 2.46491C97.7646 2.07674 95.4211 1.87546 91.8413 1.87546H91.5106V0.710938H114.643C118.712 0.710938 122.018 1.83233 124.448 4.03199C126.403 5.80034 127.395 7.66933 127.395 9.58146C127.395 11.8242 126.605 13.6932 125.052 15.1309C123.485 16.5974 121.113 17.6181 117.993 18.1644C121.17 19.1996 123.355 21.3561 124.477 24.5765C125.124 26.4311 125.454 29.2346 125.454 32.9295C125.454 33.9502 125.541 34.6978 125.713 35.1435C125.799 35.3592 126.001 35.6611 126.763 35.6611C126.993 35.6611 127.683 35.6611 128.071 34.0365C128.373 32.8288 128.517 31.118 128.517 28.9615V28.6308H129.624ZM107.052 17.3737H111.883C114.499 17.3737 116.454 16.8849 117.676 15.936C119.143 14.8003 119.876 12.8594 119.876 10.1278C119.876 7.09426 119.272 4.93773 118.065 3.7157C116.857 2.49367 114.801 1.87546 111.94 1.87546H109.28C108.533 1.87546 107.986 1.93297 107.656 2.03361C107.397 2.10549 107.253 2.24926 107.181 2.49367C107.124 2.7237 107.052 3.27002 107.052 4.57831V17.3737Z" fill="#1A1A1A"/>
<path d="M81.4039 4.67895V33.3033C81.4039 34.6403 81.5189 35.086 81.5908 35.2298C81.5908 35.2298 81.6627 35.3448 82.0796 35.5173C83.1147 35.9055 85.3144 36.1068 88.5923 36.1068H88.923V37.3144H67.3721V36.0924C70.2331 36.078 72.1883 35.8767 73.1516 35.5029C73.626 35.3448 73.6979 35.2298 73.6979 35.2154C73.7698 35.1148 73.8848 34.741 73.8848 33.3033V19.214H58.6597V33.3033C58.6597 34.6403 58.7891 35.086 58.861 35.2298C58.861 35.2298 58.9328 35.3448 59.436 35.5317C59.8242 35.6898 60.6006 35.8336 61.7076 35.9342C62.599 36.0205 63.6197 36.078 64.7411 36.0924V37.3144H43.5784V36.1068H43.909C45.4761 36.1068 46.8707 36.0493 48.0208 35.9342C49.1566 35.8336 49.9329 35.6898 50.3355 35.5317C50.6805 35.4023 50.9106 35.2442 50.9968 35.0716C51.04 34.9854 51.155 34.6403 51.155 33.3033V4.67895C51.155 3.29877 51.0256 2.92497 50.9681 2.82434C50.9681 2.80996 50.8818 2.69494 50.393 2.52242C49.9904 2.39303 49.171 2.24926 47.9633 2.09111C46.7269 1.94735 45.3611 1.87546 43.909 1.87546H43.5784V0.710938H64.928V1.88984C62.297 1.91859 60.428 2.13425 59.3929 2.52242C58.976 2.69494 58.9185 2.80996 58.9041 2.80996C58.7891 3.02561 58.6597 3.50005 58.6597 4.67895V17.6037H73.8848V4.67895C73.8848 3.39941 73.741 2.98248 73.6548 2.83871C73.6404 2.80996 73.5685 2.69494 73.1084 2.52242C72.7203 2.39303 71.9008 2.24926 70.6644 2.09111C69.6867 1.9761 68.6372 1.91859 67.559 1.90422V0.710938H88.923V1.87546H88.5923C86.9533 1.87546 85.5732 1.93297 84.5093 2.04799C83.4598 2.14862 82.6403 2.30677 82.0796 2.52242L81.6627 2.70932C81.5764 2.83871 81.4039 3.28439 81.4039 4.67895V4.67895Z" fill="#1A1A1A"/>
<path d="M51.5561 46.3333L50.4906 46.1612V45.3405H57.6632L57.7932 47.7365H56.7536L56.2729 46.2804L53.4662 46.1348V49.8809L55.4023 49.8411L55.6492 48.6763H56.4808V52.0385H55.6622L55.4023 50.8472L53.4662 50.7942V54.2491L55.4543 54.3815V55.1757H50.5556V54.3815L51.5561 54.2491V46.3333Z" fill="#727272"/>
<path d="M58.3008 54.3947L59.1584 54.2888V49.0734L58.3268 48.8351V47.9218L60.3409 47.6438H60.3798L60.7047 47.9085V48.1997L60.6657 49.272H60.7047C60.7653 49.0955 60.9083 48.8793 61.1335 48.6233C61.3587 48.3586 61.6403 48.1292 61.9781 47.935C62.3246 47.732 62.6971 47.6306 63.0956 47.6306C63.2861 47.6306 63.4507 47.657 63.5893 47.71V49.6955C63.3295 49.5102 63.0133 49.4176 62.6408 49.4176C62.0084 49.4176 61.4583 49.5896 60.9906 49.9338V54.2756L62.4978 54.3947V55.1757H58.3008V54.3947Z" fill="#727272"/>
<path d="M64.0273 51.509C64.0273 50.6795 64.1875 49.9735 64.508 49.3911C64.8372 48.8087 65.2747 48.3718 65.8204 48.0806C66.3662 47.7806 66.9595 47.6306 67.6006 47.6306C68.6921 47.6306 69.5323 47.9747 70.1214 48.663C70.7191 49.3425 71.018 50.2691 71.018 51.4428C71.018 52.2812 70.8534 52.996 70.5242 53.5872C70.2037 54.1697 69.7706 54.6065 69.2248 54.8977C68.6877 55.1801 68.0943 55.3213 67.4447 55.3213C66.3618 55.3213 65.5216 54.9815 64.9238 54.302C64.3261 53.6137 64.0273 52.6827 64.0273 51.509ZM67.5486 54.4609C68.5275 54.4609 69.0169 53.499 69.0169 51.5752C69.0169 50.5692 68.9 49.8058 68.6661 49.2852C68.4322 48.7557 68.051 48.491 67.5226 48.491C66.5178 48.491 66.0153 49.4529 66.0153 51.3766C66.0153 52.3827 66.1366 53.1504 66.3792 53.6799C66.6304 54.2006 67.0202 54.4609 67.5486 54.4609Z" fill="#727272"/>
<path d="M71.8094 54.3815L72.537 54.2623V49.0734L71.7054 48.8351V47.9218L73.8624 47.6438L74.0183 47.7497L74.2132 48.1865V48.7425C74.4991 48.4601 74.9062 48.213 75.4347 48.0012C75.9717 47.7806 76.4352 47.6703 76.825 47.6703C77.2928 47.6703 77.6696 47.7497 77.9555 47.9085C78.25 48.0674 78.4709 48.3145 78.6182 48.6498C78.904 48.3851 79.2808 48.1556 79.7486 47.9615C80.2164 47.7673 80.6755 47.6703 81.126 47.6703C81.8969 47.6703 82.4427 47.8997 82.7632 48.3586C83.0837 48.8175 83.244 49.5676 83.244 50.6089V54.2623L84.0886 54.3815V55.1757H80.7232V54.3815L81.3988 54.2623V50.6618C81.3988 49.9735 81.3165 49.4926 81.152 49.219C80.996 48.9366 80.6928 48.7954 80.2424 48.7954C79.9998 48.7954 79.7486 48.8528 79.4887 48.9675C79.2375 49.0734 79.0123 49.2058 78.8131 49.3646C78.8737 49.6999 78.904 50.1191 78.904 50.6221V54.2623L79.7096 54.3815V55.1757H76.3182V54.3815L77.0329 54.2623V50.6221C77.0329 50.1632 77.0026 49.8058 76.9419 49.5499C76.89 49.2852 76.786 49.0955 76.6301 48.9807C76.4742 48.8572 76.2489 48.7954 75.9544 48.7954C75.6772 48.7954 75.4 48.8616 75.1228 48.994C74.8543 49.1175 74.6117 49.2675 74.3951 49.444V54.2623L75.1618 54.3815V55.1757H71.8094V54.3815Z" fill="#727272"/>
<path d="M90.3516 46.2142L88.4935 46.2804L87.9867 49.1661H86.8952L87.1161 45.3405H95.4972L95.6531 49.1661H94.6266L94.1198 46.2804L92.2877 46.2142V54.2491L94.1068 54.3815V55.1757H88.6884V54.3815L90.3516 54.2491V46.2142Z" fill="#727272"/>
<path d="M96.7435 45.4994L95.7559 45.3273V44.6125L98.1728 44.3213H98.2118L98.5496 44.5728L98.5626 47.5247L98.4717 48.6763C98.7402 48.4292 99.104 48.1997 99.5631 47.988C100.031 47.7762 100.52 47.6703 101.031 47.6703C101.577 47.6703 102.002 47.7762 102.305 47.988C102.608 48.1909 102.82 48.5042 102.942 48.9278C103.063 49.3514 103.123 49.9162 103.123 50.6221V54.2623L103.955 54.3815V55.1757H100.538V54.3815L101.291 54.2623V50.6221C101.291 50.1632 101.261 49.8058 101.2 49.5499C101.14 49.294 101.027 49.1043 100.863 48.9807C100.707 48.8572 100.473 48.7954 100.161 48.7954C99.8923 48.7954 99.6151 48.8616 99.3293 48.994C99.0521 49.1175 98.8052 49.2675 98.5886 49.444V54.2623L99.3812 54.3815V55.1757H96.0158V54.3815L96.7435 54.2756V45.4994Z" fill="#727272"/>
<path d="M107.722 55.3213C106.579 55.3213 105.726 54.9815 105.162 54.302C104.608 53.6137 104.331 52.6783 104.331 51.4958C104.331 50.7016 104.474 50.0132 104.76 49.4308C105.054 48.8484 105.466 48.4027 105.994 48.0939C106.523 47.785 107.133 47.6306 107.826 47.6306C108.692 47.6306 109.36 47.8644 109.827 48.3321C110.295 48.791 110.538 49.4484 110.555 50.3044C110.555 50.8869 110.52 51.3193 110.451 51.6017H106.228C106.263 52.4047 106.449 53.0313 106.787 53.4813C107.125 53.9226 107.605 54.1432 108.229 54.1432C108.567 54.1432 108.913 54.0858 109.269 53.9711C109.632 53.8564 109.918 53.7196 110.126 53.5608L110.451 54.2888C110.217 54.5447 109.836 54.783 109.308 55.0036C108.788 55.2154 108.259 55.3213 107.722 55.3213ZM108.736 50.8075C108.753 50.5604 108.762 50.3706 108.762 50.2383C108.762 49.0646 108.376 48.4777 107.605 48.4777C107.181 48.4777 106.852 48.6498 106.618 48.994C106.384 49.3381 106.254 49.9426 106.228 50.8075H108.736Z" fill="#727272"/>
<path d="M114.844 46.3333L113.805 46.1612V45.3405H120.731L120.899 47.5644H119.99L119.561 46.2539L116.754 46.1348V49.6955L118.561 49.6558L118.768 48.5704H119.6V51.7738H118.768L118.561 50.6354L116.754 50.5957V54.3285L119.899 54.1697L120.653 52.4753L121.627 52.7533L121.289 55.1757H113.818V54.3815L114.844 54.2491V46.3333Z" fill="#727272"/>
<path d="M121.852 51.5355C121.852 50.7766 121.999 50.1015 122.293 49.5102C122.597 48.919 123.025 48.4601 123.58 48.1336C124.143 47.7982 124.797 47.6306 125.542 47.6306C125.888 47.6306 126.187 47.657 126.438 47.71C126.69 47.7629 126.971 47.8335 127.283 47.9218L127.66 48.0277L127.582 50.2912H126.451L126.127 48.8351C126.075 48.6057 125.819 48.491 125.36 48.491C124.875 48.491 124.494 48.7072 124.216 49.1396C123.948 49.572 123.809 50.2471 123.801 51.1649C123.801 52.1356 123.965 52.8813 124.294 53.4019C124.624 53.9137 125.061 54.1697 125.607 54.1697C126.265 54.1697 126.872 53.9888 127.426 53.6269L127.725 54.3153C127.5 54.5624 127.153 54.7918 126.685 55.0036C126.226 55.2154 125.728 55.3213 125.191 55.3213C124.082 55.3213 123.246 54.9727 122.683 54.2756C122.129 53.5784 121.852 52.6651 121.852 51.5355Z" fill="#727272"/>
<path d="M128.369 51.509C128.369 50.6795 128.529 49.9735 128.849 49.3911C129.179 48.8087 129.616 48.3718 130.162 48.0806C130.708 47.7806 131.301 47.6306 131.942 47.6306C133.034 47.6306 133.874 47.9747 134.463 48.663C135.061 49.3425 135.359 50.2691 135.359 51.4428C135.359 52.2812 135.195 52.996 134.866 53.5872C134.545 54.1697 134.112 54.6065 133.566 54.8977C133.029 55.1801 132.436 55.3213 131.786 55.3213C130.703 55.3213 129.863 54.9815 129.265 54.302C128.668 53.6137 128.369 52.6827 128.369 51.509ZM131.89 54.4609C132.869 54.4609 133.358 53.499 133.358 51.5752C133.358 50.5692 133.241 49.8058 133.008 49.2852C132.774 48.7557 132.392 48.491 131.864 48.491C130.859 48.491 130.357 49.4529 130.357 51.3766C130.357 52.3827 130.478 53.1504 130.721 53.6799C130.972 54.2006 131.362 54.4609 131.89 54.4609Z" fill="#727272"/>
<path d="M136.878 49.0734L136.047 48.8351V47.9218L138.204 47.6438H138.243L138.568 47.9085V48.4248L138.555 48.7425C138.858 48.4513 139.252 48.1997 139.737 47.988C140.222 47.7762 140.712 47.6703 141.205 47.6703C141.734 47.6703 142.145 47.7718 142.44 47.9747C142.743 48.1689 142.96 48.4777 143.09 48.9013C143.219 49.3249 143.284 49.8985 143.284 50.6221V54.2756L144.077 54.3815V55.1757H140.725V54.3815L141.426 54.2756V50.6221C141.426 50.1632 141.396 49.8058 141.335 49.5499C141.275 49.2852 141.162 49.0955 140.998 48.9807C140.842 48.8572 140.616 48.7954 140.322 48.7954C139.828 48.7954 139.3 49.0116 138.737 49.444V54.2623L139.516 54.3815V55.1757H136.125V54.3815L136.878 54.2623V49.0734Z" fill="#727272"/>
<path d="M144.605 51.509C144.605 50.6795 144.766 49.9735 145.086 49.3911C145.415 48.8087 145.853 48.3718 146.399 48.0806C146.944 47.7806 147.538 47.6306 148.179 47.6306C149.27 47.6306 150.111 47.9747 150.7 48.663C151.297 49.3425 151.596 50.2691 151.596 51.4428C151.596 52.2812 151.432 52.996 151.102 53.5872C150.782 54.1697 150.349 54.6065 149.803 54.8977C149.266 55.1801 148.673 55.3213 148.023 55.3213C146.94 55.3213 146.1 54.9815 145.502 54.302C144.904 53.6137 144.605 52.6827 144.605 51.509ZM148.127 54.4609C149.106 54.4609 149.595 53.499 149.595 51.5752C149.595 50.5692 149.478 49.8058 149.244 49.2852C149.01 48.7557 148.629 48.491 148.101 48.491C147.096 48.491 146.594 49.4529 146.594 51.3766C146.594 52.3827 146.715 53.1504 146.957 53.6799C147.209 54.2006 147.598 54.4609 148.127 54.4609Z" fill="#727272"/>
<path d="M152.388 54.3815L153.115 54.2623V49.0734L152.284 48.8351V47.9218L154.441 47.6438L154.597 47.7497L154.791 48.1865V48.7425C155.077 48.4601 155.484 48.213 156.013 48.0012C156.55 47.7806 157.013 47.6703 157.403 47.6703C157.871 47.6703 158.248 47.7497 158.534 47.9085C158.828 48.0674 159.049 48.3145 159.196 48.6498C159.482 48.3851 159.859 48.1556 160.327 47.9615C160.795 47.7673 161.254 47.6703 161.704 47.6703C162.475 47.6703 163.021 47.8997 163.341 48.3586C163.662 48.8175 163.822 49.5676 163.822 50.6089V54.2623L164.667 54.3815V55.1757H161.301V54.3815L161.977 54.2623V50.6618C161.977 49.9735 161.895 49.4926 161.73 49.219C161.574 48.9366 161.271 48.7954 160.821 48.7954C160.578 48.7954 160.327 48.8528 160.067 48.9675C159.816 49.0734 159.591 49.2058 159.391 49.3646C159.452 49.6999 159.482 50.1191 159.482 50.6221V54.2623L160.288 54.3815V55.1757H156.896V54.3815L157.611 54.2623V50.6221C157.611 50.1632 157.581 49.8058 157.52 49.5499C157.468 49.2852 157.364 49.0955 157.208 48.9807C157.052 48.8572 156.827 48.7954 156.533 48.7954C156.255 48.7954 155.978 48.8616 155.701 48.994C155.432 49.1175 155.19 49.2675 154.973 49.444V54.2623L155.74 54.3815V55.1757H152.388V54.3815Z" fill="#727272"/>
<path d="M166.703 46.6113C166.391 46.6113 166.144 46.5186 165.962 46.3333C165.78 46.148 165.689 45.9097 165.689 45.6185C165.689 45.2832 165.793 45.0052 166.001 44.7846C166.209 44.564 166.486 44.4537 166.833 44.4537C167.179 44.4537 167.444 44.5507 167.625 44.7449C167.807 44.9302 167.898 45.164 167.898 45.4464C167.898 45.7994 167.794 46.0818 167.586 46.2936C167.379 46.5054 167.088 46.6113 166.716 46.6113H166.703ZM166.014 49.0734L165.092 48.8219V47.935L167.469 47.6438H167.495L167.859 47.9085V54.2756L168.73 54.3815V55.1757H165.105V54.3815L166.014 54.2623V49.0734Z" fill="#727272"/>
<path d="M169.103 51.5355C169.103 50.7766 169.25 50.1015 169.544 49.5102C169.848 48.919 170.276 48.4601 170.831 48.1336C171.394 47.7982 172.048 47.6306 172.793 47.6306C173.139 47.6306 173.438 47.657 173.689 47.71C173.941 47.7629 174.222 47.8335 174.534 47.9218L174.911 48.0277L174.833 50.2912H173.702L173.378 48.8351C173.326 48.6057 173.07 48.491 172.611 48.491C172.126 48.491 171.745 48.7072 171.467 49.1396C171.199 49.572 171.06 50.2471 171.052 51.1649C171.052 52.1356 171.216 52.8813 171.545 53.4019C171.875 53.9137 172.312 54.1697 172.858 54.1697C173.516 54.1697 174.123 53.9888 174.677 53.6269L174.976 54.3153C174.751 54.5624 174.404 54.7918 173.936 55.0036C173.477 55.2154 172.979 55.3213 172.442 55.3213C171.333 55.3213 170.497 54.9727 169.934 54.2756C169.38 53.5784 169.103 52.6651 169.103 51.5355Z" fill="#727272"/>
<path d="M181.393 46.2142L179.535 46.2804L179.028 49.1661H177.937L178.157 45.3405H186.538L186.694 49.1661H185.668L185.161 46.2804L183.329 46.2142V54.2491L185.148 54.3815V55.1757H179.73V54.3815L181.393 54.2491V46.2142Z" fill="#727272"/>
<path d="M188.72 46.6113C188.408 46.6113 188.162 46.5186 187.98 46.3333C187.798 46.148 187.707 45.9097 187.707 45.6185C187.707 45.2832 187.811 45.0052 188.019 44.7846C188.227 44.564 188.504 44.4537 188.85 44.4537C189.197 44.4537 189.461 44.5507 189.643 44.7449C189.825 44.9302 189.916 45.164 189.916 45.4464C189.916 45.7994 189.812 46.0818 189.604 46.2936C189.396 46.5054 189.106 46.6113 188.733 46.6113H188.72ZM188.032 49.0734L187.109 48.8219V47.935L189.487 47.6438H189.513L189.877 47.9085V54.2756L190.747 54.3815V55.1757H187.122V54.3815L188.032 54.2623V49.0734Z" fill="#727272"/>
<path d="M191.289 54.3815L192.017 54.2623V49.0734L191.185 48.8351V47.9218L193.342 47.6438L193.498 47.7497L193.693 48.1865V48.7425C193.979 48.4601 194.386 48.213 194.914 48.0012C195.451 47.7806 195.915 47.6703 196.305 47.6703C196.772 47.6703 197.149 47.7497 197.435 47.9085C197.73 48.0674 197.95 48.3145 198.098 48.6498C198.384 48.3851 198.76 48.1556 199.228 47.9615C199.696 47.7673 200.155 47.6703 200.606 47.6703C201.377 47.6703 201.922 47.8997 202.243 48.3586C202.563 48.8175 202.724 49.5676 202.724 50.6089V54.2623L203.568 54.3815V55.1757H200.203V54.3815L200.878 54.2623V50.6618C200.878 49.9735 200.796 49.4926 200.632 49.219C200.476 48.9366 200.172 48.7954 199.722 48.7954C199.479 48.7954 199.228 48.8528 198.968 48.9675C198.717 49.0734 198.492 49.2058 198.293 49.3646C198.353 49.6999 198.384 50.1191 198.384 50.6221V54.2623L199.189 54.3815V55.1757H195.798V54.3815L196.513 54.2623V50.6221C196.513 50.1632 196.482 49.8058 196.422 49.5499C196.37 49.2852 196.266 49.0955 196.11 48.9807C195.954 48.8572 195.729 48.7954 195.434 48.7954C195.157 48.7954 194.88 48.8616 194.602 48.994C194.334 49.1175 194.091 49.2675 193.875 49.444V54.2623L194.641 54.3815V55.1757H191.289V54.3815Z" fill="#727272"/>
<path d="M207.332 55.3213C206.189 55.3213 205.336 54.9815 204.773 54.302C204.218 53.6137 203.941 52.6783 203.941 51.4958C203.941 50.7016 204.084 50.0132 204.37 49.4308C204.664 48.8484 205.076 48.4027 205.604 48.0939C206.133 47.785 206.743 47.6306 207.436 47.6306C208.303 47.6306 208.97 47.8644 209.437 48.3321C209.905 48.791 210.148 49.4484 210.165 50.3044C210.165 50.8869 210.13 51.3193 210.061 51.6017H205.838C205.873 52.4047 206.059 53.0313 206.397 53.4813C206.735 53.9226 207.215 54.1432 207.839 54.1432C208.177 54.1432 208.524 54.0858 208.879 53.9711C209.243 53.8564 209.528 53.7196 209.736 53.5608L210.061 54.2888C209.827 54.5447 209.446 54.783 208.918 55.0036C208.398 55.2154 207.87 55.3213 207.332 55.3213ZM208.346 50.8075C208.363 50.5604 208.372 50.3706 208.372 50.2383C208.372 49.0646 207.986 48.4777 207.215 48.4777C206.791 48.4777 206.462 48.6498 206.228 48.994C205.994 49.3381 205.864 49.9426 205.838 50.8075H208.346Z" fill="#727272"/>
<path d="M212.255 54.0902C212.324 54.1961 212.48 54.2976 212.722 54.3947C212.974 54.4829 213.225 54.5271 213.476 54.5271C213.883 54.5271 214.186 54.4432 214.386 54.2756C214.593 54.0991 214.697 53.8696 214.697 53.5872C214.697 53.296 214.572 53.0622 214.321 52.8857C214.069 52.7004 213.645 52.4753 213.047 52.2106L212.683 52.0517C212.086 51.7958 211.64 51.487 211.345 51.1251C211.05 50.7633 210.903 50.2956 210.903 49.722C210.903 49.3249 211.02 48.9719 211.254 48.663C211.488 48.3454 211.817 48.0983 212.242 47.9218C212.666 47.7453 213.155 47.657 213.71 47.657C214.117 47.657 214.464 47.6835 214.749 47.7365C215.044 47.7894 215.351 47.86 215.672 47.9482C215.845 48.01 215.975 48.0453 216.062 48.0541V49.7882H215.035L214.736 48.7822C214.684 48.6939 214.567 48.6145 214.386 48.5439C214.204 48.4733 213.996 48.438 213.762 48.438C213.407 48.438 213.121 48.5174 212.904 48.6763C212.696 48.8263 212.592 49.0381 212.592 49.3117C212.592 49.5588 212.666 49.7661 212.813 49.9338C212.961 50.0926 213.121 50.2162 213.294 50.3044C213.467 50.3927 213.788 50.5383 214.256 50.7413C214.723 50.9442 215.109 51.1384 215.412 51.3237C215.724 51.509 215.979 51.7517 216.179 52.0517C216.387 52.343 216.491 52.7004 216.491 53.1239C216.491 53.777 216.239 54.3064 215.737 54.7124C215.235 55.1183 214.511 55.3213 213.567 55.3213C213.125 55.3213 212.727 55.2816 212.372 55.2022C212.025 55.1227 211.622 55.0168 211.163 54.8845L210.877 54.7918V53.0445H211.956L212.255 54.0902Z" fill="#727272"/>
</svg>
